<svg width="27" height="23" viewBox="0 0 27 23"  xmlns="http://www.w3.org/2000/svg">
<path fill-rule="evenodd" clip-rule="evenodd" d="M0.0919952 22C0.0919952 21.8011 0.171013 21.6103 0.311665 21.4697C0.452317 21.329 0.643083 21.25 0.841995 21.25H25.842C26.0409 21.25 26.2317 21.329 26.3723 21.4697C26.513 21.6103 26.592 21.8011 26.592 22C26.592 22.1989 26.513 22.3897 26.3723 22.5303C26.2317 22.671 26.0409 22.75 25.842 22.75H0.841995C0.643083 22.75 0.452317 22.671 0.311665 22.5303C0.171013 22.3897 0.0919952 22.1989 0.0919952 22V22Z" />
<path fill-rule="evenodd" clip-rule="evenodd" d="M9.092 7C9.092 6.80109 9.17101 6.61032 9.31167 6.46967C9.45232 6.32902 9.64308 6.25 9.842 6.25H16.842C17.0409 6.25 17.2317 6.32902 17.3723 6.46967C17.513 6.61032 17.592 6.80109 17.592 7C17.592 7.19891 17.513 7.38968 17.3723 7.53033C17.2317 7.67098 17.0409 7.75 16.842 7.75H10.592V22C10.592 22.1989 10.513 22.3897 10.3723 22.5303C10.2317 22.671 10.0409 22.75 9.842 22.75C9.64308 22.75 9.45232 22.671 9.31167 22.5303C9.17101 22.3897 9.092 22.1989 9.092 22V7V7Z" />
<path fill-rule="evenodd" clip-rule="evenodd" d="M16.092 1C16.092 0.801088 16.171 0.610322 16.3117 0.46967C16.4523 0.329018 16.6431 0.25 16.842 0.25H23.842C24.0409 0.25 24.2317 0.329018 24.3723 0.46967C24.513 0.610322 24.592 0.801088 24.592 1V22C24.592 22.1989 24.513 22.3897 24.3723 22.5303C24.2317 22.671 24.0409 22.75 23.842 22.75H16.842C16.6431 22.75 16.4523 22.671 16.3117 22.5303C16.171 22.3897 16.092 22.1989 16.092 22V1ZM17.592 1.75V21.25H23.092V1.75H17.592Z" />
<path fill-rule="evenodd" clip-rule="evenodd" d="M2.092 13C2.092 12.8011 2.17101 12.6103 2.31167 12.4697C2.45232 12.329 2.64308 12.25 2.842 12.25H9.842C10.0409 12.25 10.2317 12.329 10.3723 12.4697C10.513 12.6103 10.592 12.8011 10.592 13C10.592 13.1989 10.513 13.3897 10.3723 13.5303C10.2317 13.671 10.0409 13.75 9.842 13.75H3.592V22C3.592 22.1989 3.51298 22.3897 3.37233 22.5303C3.23167 22.671 3.04091 22.75 2.842 22.75C2.64308 22.75 2.45232 22.671 2.31167 22.5303C2.17101 22.3897 2.092 22.1989 2.092 22V13V13Z" />
</svg>
