<svg width="40" height="40" viewBox="0 0 40 40"  xmlns="http://www.w3.org/2000/svg">
<path fill-rule="evenodd" clip-rule="evenodd" d="M20 2.25C10.1969 2.25 2.25 10.1969 2.25 20C2.25 29.8031 10.1969 37.75 20 37.75C29.8031 37.75 37.75 29.8031 37.75 20C37.75 10.1969 29.8031 2.25 20 2.25ZM0.25 20C0.25 9.0924 9.0924 0.25 20 0.25C30.9076 0.25 39.75 9.0924 39.75 20C39.75 30.9076 30.9076 39.75 20 39.75C9.0924 39.75 0.25 30.9076 0.25 20Z" />
<path fill-rule="evenodd" clip-rule="evenodd" d="M20.4843 12.6717C20.8748 12.2812 21.508 12.2812 21.8985 12.6717L28.5196 19.2928C28.9101 19.6833 28.9101 20.3165 28.5196 20.707L21.8985 27.3281C21.508 27.7186 20.8748 27.7186 20.4843 27.3281C20.0938 26.9376 20.0938 26.3044 20.4843 25.9139L26.3983 19.9999L20.4843 14.0859C20.0938 13.6954 20.0938 13.0622 20.4843 12.6717Z" />
<path fill-rule="evenodd" clip-rule="evenodd" d="M11.1875 20C11.1875 19.4477 11.6352 19 12.1875 19H27.8125C28.3648 19 28.8125 19.4477 28.8125 20C28.8125 20.5523 28.3648 21 27.8125 21H12.1875C11.6352 21 11.1875 20.5523 11.1875 20Z" />
</svg>
