<svg width="26" height="25" viewBox="0 0 26 25"  xmlns="http://www.w3.org/2000/svg">
<path fill-rule="evenodd" clip-rule="evenodd" d="M2.31 2.612C2.24369 2.612 2.18011 2.63834 2.13322 2.68522C2.08634 2.73211 2.06 2.7957 2.06 2.862V22.862C2.06 23 2.173 23.112 2.31 23.112H6.31C6.3763 23.112 6.43989 23.0857 6.48677 23.0388C6.53366 22.9919 6.56 22.9283 6.56 22.862V2.862C6.56 2.7957 6.53366 2.73211 6.48677 2.68522C6.43989 2.63834 6.3763 2.612 6.31 2.612H2.31V2.612ZM0.559998 2.862C0.559998 1.895 1.344 1.112 2.31 1.112H6.31C7.277 1.112 8.06 1.895 8.06 2.862V22.862C8.06 23.3261 7.87562 23.7712 7.54743 24.0994C7.21925 24.4276 6.77413 24.612 6.31 24.612H2.31C1.84587 24.612 1.40075 24.4276 1.07256 24.0994C0.744372 23.7712 0.559998 23.3261 0.559998 22.862V2.862V2.862Z" />
<path fill-rule="evenodd" clip-rule="evenodd" d="M0.559998 6.862C0.559998 6.66309 0.639015 6.47232 0.779667 6.33167C0.92032 6.19102 1.11109 6.112 1.31 6.112H7.31C7.50891 6.112 7.69968 6.19102 7.84033 6.33167C7.98098 6.47232 8.06 6.66309 8.06 6.862C8.06 7.06091 7.98098 7.25168 7.84033 7.39233C7.69968 7.53298 7.50891 7.612 7.31 7.612H1.31C1.11109 7.612 0.92032 7.53298 0.779667 7.39233C0.639015 7.25168 0.559998 7.06091 0.559998 6.862V6.862Z" />
<path fill-rule="evenodd" clip-rule="evenodd" d="M8.31 2.612C8.24369 2.612 8.1801 2.63834 8.13322 2.68522C8.08634 2.73211 8.06 2.7957 8.06 2.862V22.862C8.06 23 8.173 23.112 8.31 23.112H12.31C12.3763 23.112 12.4399 23.0857 12.4868 23.0388C12.5337 22.9919 12.56 22.9283 12.56 22.862V2.862C12.56 2.7957 12.5337 2.73211 12.4868 2.68522C12.4399 2.63834 12.3763 2.612 12.31 2.612H8.31V2.612ZM6.56 2.862C6.56 1.895 7.344 1.112 8.31 1.112H12.31C13.277 1.112 14.06 1.895 14.06 2.862V22.862C14.06 23.3261 13.8756 23.7712 13.5474 24.0994C13.2192 24.4276 12.7741 24.612 12.31 24.612H8.31C7.84587 24.612 7.40075 24.4276 7.07256 24.0994C6.74437 23.7712 6.56 23.3261 6.56 22.862V2.862V2.862Z" />
<path fill-rule="evenodd" clip-rule="evenodd" d="M6.56 18.862C6.56 18.6631 6.63901 18.4723 6.77967 18.3317C6.92032 18.191 7.11109 18.112 7.31 18.112H13.31C13.5089 18.112 13.6997 18.191 13.8403 18.3317C13.981 18.4723 14.06 18.6631 14.06 18.862C14.06 19.0609 13.981 19.2517 13.8403 19.3923C13.6997 19.533 13.5089 19.612 13.31 19.612H7.31C7.11109 19.612 6.92032 19.533 6.77967 19.3923C6.63901 19.2517 6.56 19.0609 6.56 18.862V18.862Z" />
<path fill-rule="evenodd" clip-rule="evenodd" d="M14.568 3.302C14.5361 3.31048 14.5061 3.32518 14.4798 3.34526C14.4536 3.36534 14.4316 3.39041 14.415 3.41903C14.3985 3.44764 14.3878 3.47925 14.3835 3.51202C14.3792 3.54479 14.3814 3.57809 14.39 3.61L19.59 23.01C19.5986 23.0419 19.6134 23.0717 19.6335 23.0979C19.6536 23.124 19.6787 23.1459 19.7073 23.1624C19.7359 23.1788 19.7675 23.1894 19.8002 23.1937C19.8329 23.1979 19.8662 23.1956 19.898 23.187L23.778 22.147C23.8421 22.1297 23.8968 22.0876 23.9299 22.0301C23.9631 21.9725 23.9721 21.9042 23.955 21.84L18.755 2.44C18.7379 2.3757 18.6959 2.32083 18.6384 2.28745C18.5808 2.25407 18.5123 2.24492 18.448 2.262L14.568 3.302V3.302ZM12.935 4C12.8751 3.77702 12.8598 3.54442 12.8899 3.3155C12.9199 3.08658 12.9948 2.86584 13.1103 2.66588C13.2257 2.46593 13.3794 2.29069 13.5626 2.15018C13.7458 2.00967 13.955 1.90665 14.178 1.847L18.058 0.807005C18.2809 0.747279 18.5134 0.732055 18.7422 0.762202C18.971 0.79235 19.1917 0.867277 19.3915 0.982706C19.5913 1.09813 19.7665 1.2518 19.9069 1.43493C20.0474 1.61806 20.1503 1.82707 20.21 2.05L25.41 21.45C25.5307 21.9001 25.4676 22.3796 25.2347 22.7832C25.0018 23.1868 24.6181 23.4813 24.168 23.602L20.288 24.642C20.0651 24.7019 19.8325 24.7173 19.6037 24.6873C19.3748 24.6573 19.1541 24.5824 18.9542 24.4671C18.7542 24.3518 18.579 24.1982 18.4384 24.0151C18.2979 23.832 18.1948 23.623 18.135 23.4L12.935 4Z" />
<path fill-rule="evenodd" clip-rule="evenodd" d="M24.235 17.504C24.2607 17.5992 24.2674 17.6986 24.2547 17.7964C24.2419 17.8942 24.21 17.9885 24.1608 18.0739C24.1116 18.1594 24.046 18.2343 23.9678 18.2944C23.8896 18.3544 23.8003 18.3985 23.705 18.424L17.905 19.986C17.7147 20.0326 17.5137 20.0028 17.3451 19.9032C17.1764 19.8035 17.0535 19.6417 17.0025 19.4526C16.9515 19.2634 16.9766 19.0618 17.0724 18.8909C17.1682 18.72 17.327 18.5933 17.515 18.538L23.315 16.975C23.4102 16.9493 23.5096 16.9426 23.6073 16.9553C23.7051 16.9681 23.7995 17 23.8849 17.0492C23.9704 17.0984 24.0453 17.164 24.1054 17.2422C24.1654 17.3204 24.2095 17.4097 24.235 17.505V17.504Z" />
<path fill-rule="evenodd" clip-rule="evenodd" d="M21.135 5.91801C21.1863 6.11002 21.1593 6.31455 21.06 6.48668C20.9606 6.6588 20.797 6.78445 20.605 6.83601L14.805 8.38601C14.7099 8.41148 14.6106 8.41797 14.513 8.4051C14.4153 8.39223 14.3212 8.36025 14.2359 8.31098C14.1506 8.26172 14.0758 8.19614 14.0159 8.11799C13.9559 8.03984 13.912 7.95065 13.8865 7.85551C13.861 7.76036 13.8545 7.66113 13.8674 7.56349C13.8803 7.46584 13.9123 7.37168 13.9615 7.28639C14.0108 7.2011 14.0764 7.12634 14.1545 7.0664C14.2327 7.00645 14.3219 6.96248 14.417 6.93701L20.217 5.38701C20.4091 5.33572 20.6138 5.36284 20.786 5.46242C20.9581 5.562 21.0837 5.72587 21.135 5.91801V5.91801Z" />
</svg>
