<svg width="23" height="26" viewBox="0 0 23 26"  xmlns="http://www.w3.org/2000/svg">
<path d="M17.641 1.235V13.235L13.641 10.235L9.64101 13.235V1.235" />
<path d="M17.641 1.235V13.235L13.641 10.235L9.64101 13.235V1.235" stroke="black" stroke-width="1.5" stroke-linecap="round" stroke-linejoin="round"/>
<path d="M1.641 24.235C1.63942 23.8406 1.71593 23.4498 1.86613 23.0851C2.01633 22.7204 2.23725 22.389 2.51615 22.1101C2.79504 21.8312 3.12639 21.6103 3.49108 21.4601C3.85577 21.3099 4.24659 21.2334 4.641 21.235H21.641V1.235H4.641C4.24656 1.23328 3.85568 1.3097 3.49092 1.45986C3.12617 1.61001 2.79477 1.83092 2.51585 2.10984C2.23693 2.38876 2.01602 2.72016 1.86586 3.08492C1.71571 3.44967 1.63928 3.84055 1.641 4.235V24.235V24.235Z"  stroke="black" stroke-width="1.5" stroke-linecap="round" stroke-linejoin="round"/>
<path d="M1.64101 24.235V25.235H19.641" />
<path d="M1.64101 24.235V25.235H19.641" stroke="black" stroke-width="1.5" stroke-linecap="round" stroke-linejoin="round"/>
</svg>
