<svg width="26" height="24" viewBox="0 0 26 24"  xmlns="http://www.w3.org/2000/svg">
<path fill-rule="evenodd" clip-rule="evenodd" d="M1.766 5.812C1.69969 5.812 1.63611 5.83834 1.58922 5.88522C1.54234 5.9321 1.516 5.99569 1.516 6.062V22.062C1.516 22.2 1.627 22.312 1.766 22.312H23.766C23.8323 22.312 23.8959 22.2857 23.9428 22.2388C23.9897 22.1919 24.016 22.1283 24.016 22.062V6.062C24.016 5.99569 23.9897 5.9321 23.9428 5.88522C23.8959 5.83834 23.8323 5.812 23.766 5.812H1.766V5.812ZM0.0159988 6.062C0.0159988 5.096 0.798999 4.312 1.766 4.312H23.766C24.732 4.312 25.516 5.096 25.516 6.062V22.062C25.516 22.5261 25.3316 22.9712 25.0034 23.2994C24.6752 23.6276 24.2301 23.812 23.766 23.812H1.766C1.30187 23.812 0.856751 23.6276 0.528562 23.2994C0.200373 22.9712 0.0159988 22.5261 0.0159988 22.062V6.062V6.062Z" />
<path fill-rule="evenodd" clip-rule="evenodd" d="M7.821 1.118C8.33651 0.602205 9.03577 0.312285 9.765 0.311996H15.765C16.4943 0.311996 17.1938 0.601728 17.7095 1.11745C18.2253 1.63318 18.515 2.33265 18.515 3.062V5.062C18.515 5.26091 18.436 5.45167 18.2953 5.59233C18.1547 5.73298 17.9639 5.812 17.765 5.812C17.5661 5.812 17.3753 5.73298 17.2347 5.59233C17.094 5.45167 17.015 5.26091 17.015 5.062V3.062C17.015 2.73048 16.8833 2.41253 16.6489 2.17811C16.4145 1.94369 16.0965 1.812 15.765 1.812H9.765C9.43348 1.812 9.11554 1.94369 8.88112 2.17811C8.6467 2.41253 8.515 2.73048 8.515 3.062V5.062C8.515 5.26091 8.43599 5.45167 8.29533 5.59233C8.15468 5.73298 7.96392 5.812 7.765 5.812C7.56609 5.812 7.37532 5.73298 7.23467 5.59233C7.09402 5.45167 7.015 5.26091 7.015 5.062V3.062C7.015 2.332 7.305 1.633 7.821 1.118V1.118Z" />
<path fill-rule="evenodd" clip-rule="evenodd" d="M25.415 11.474C25.4643 11.5593 25.4964 11.6534 25.5093 11.7511C25.5223 11.8488 25.5158 11.9481 25.4904 12.0433C25.4649 12.1384 25.421 12.2277 25.361 12.3059C25.3011 12.3841 25.2263 12.4497 25.141 12.499C21.3799 14.6741 17.1108 15.817 12.766 15.812C8.41964 15.823 4.14834 14.6794 0.389003 12.498C0.30189 12.4496 0.225303 12.3843 0.163718 12.3059C0.102133 12.2275 0.0567853 12.1377 0.0303246 12.0416C0.003864 11.9455 -0.00317858 11.8451 0.00960844 11.7462C0.0223954 11.6474 0.0547559 11.5521 0.104798 11.4659C0.15484 11.3797 0.22156 11.3044 0.301059 11.2442C0.380559 11.1841 0.471242 11.1405 0.56781 11.1158C0.664378 11.0911 0.764893 11.086 0.863482 11.1006C0.962071 11.1152 1.05676 11.1493 1.142 11.201C4.67202 13.2492 8.68282 14.3228 12.764 14.312H12.766C16.8472 14.3169 20.8572 13.2433 24.39 11.2C24.4753 11.1506 24.5695 11.1186 24.6671 11.1057C24.7648 11.0927 24.8641 11.0992 24.9593 11.1246C25.0545 11.1501 25.1437 11.194 25.2219 11.254C25.3001 11.3139 25.3657 11.3887 25.415 11.474V11.474Z" />
<path fill-rule="evenodd" clip-rule="evenodd" d="M10.515 11.062C10.515 10.8631 10.594 10.6723 10.7347 10.5317C10.8753 10.391 11.0661 10.312 11.265 10.312H14.265C14.4639 10.312 14.6547 10.391 14.7953 10.5317C14.936 10.6723 15.015 10.8631 15.015 11.062C15.015 11.2609 14.936 11.4517 14.7953 11.5923C14.6547 11.733 14.4639 11.812 14.265 11.812H11.265C11.0661 11.812 10.8753 11.733 10.7347 11.5923C10.594 11.4517 10.515 11.2609 10.515 11.062V11.062Z" />
</svg>
