<svg width="27" height="22" viewBox="0 0 27 22"  xmlns="http://www.w3.org/2000/svg">
<path fill-rule="evenodd" clip-rule="evenodd" d="M1.34201 0.25C1.54092 0.25 1.73169 0.329018 1.87234 0.46967C2.01299 0.610322 2.09201 0.801088 2.09201 1V20.25H25.342C25.5409 20.25 25.7317 20.329 25.8723 20.4697C26.013 20.6103 26.092 20.8011 26.092 21C26.092 21.1989 26.013 21.3897 25.8723 21.5303C25.7317 21.671 25.5409 21.75 25.342 21.75H1.34201C1.1431 21.75 0.952333 21.671 0.81168 21.5303C0.671028 21.3897 0.59201 21.1989 0.59201 21V1C0.59201 0.801088 0.671028 0.610322 0.81168 0.46967C0.952333 0.329018 1.1431 0.25 1.34201 0.25V0.25Z" />
<path fill-rule="evenodd" clip-rule="evenodd" d="M23.872 2.47C24.0125 2.61062 24.0913 2.80125 24.0913 3C24.0913 3.19875 24.0125 3.38937 23.872 3.53L13.872 13.53C13.7314 13.6704 13.5408 13.7493 13.342 13.7493C13.1433 13.7493 12.9526 13.6704 12.812 13.53L9.34201 10.06L1.87201 17.53C1.72983 17.6625 1.54179 17.7346 1.34749 17.7312C1.15319 17.7277 0.967801 17.649 0.830388 17.5116C0.692975 17.3742 0.614263 17.1888 0.610835 16.9945C0.607406 16.8002 0.67953 16.6122 0.81201 16.47L8.81201 8.47C8.95264 8.32955 9.14326 8.25066 9.34201 8.25066C9.54076 8.25066 9.73138 8.32955 9.87201 8.47L13.342 11.94L22.812 2.47C22.9526 2.32955 23.1433 2.25066 23.342 2.25066C23.5408 2.25066 23.7314 2.32955 23.872 2.47V2.47Z" />
<path fill-rule="evenodd" clip-rule="evenodd" d="M17.592 3C17.592 2.80109 17.671 2.61032 17.8117 2.46967C17.9523 2.32902 18.1431 2.25 18.342 2.25H23.342C23.5409 2.25 23.7317 2.32902 23.8723 2.46967C24.013 2.61032 24.092 2.80109 24.092 3V8C24.092 8.19891 24.013 8.38968 23.8723 8.53033C23.7317 8.67098 23.5409 8.75 23.342 8.75C23.1431 8.75 22.9523 8.67098 22.8117 8.53033C22.671 8.38968 22.592 8.19891 22.592 8V3.75H18.342C18.1431 3.75 17.9523 3.67098 17.8117 3.53033C17.671 3.38968 17.592 3.19891 17.592 3Z" />
</svg>
