<svg width="18" height="18" viewBox="0 0 18 18"  xmlns="http://www.w3.org/2000/svg">
<g clip-path="url(#clip0_2_68)">
<path d="M18 9.00001C17.9999 7.28007 17.507 5.59618 16.5796 4.14769C15.6522 2.6992 14.3292 1.54678 12.7672 0.82686C11.2051 0.106942 9.46955 -0.150322 7.76586 0.0855273C6.06217 0.321376 4.46174 1.04046 3.15404 2.15765C1.84634 3.27483 0.886147 4.74333 0.387132 6.38928C-0.111884 8.03524 -0.128819 9.78971 0.338331 11.445C0.805481 13.1003 1.73715 14.587 3.02304 15.7292C4.30893 16.8715 5.89518 17.6213 7.594 17.89V11.602H5.309V9.00001H7.594V7.01701C7.594 4.76201 8.937 3.51601 10.994 3.51601C11.978 3.51601 13.008 3.69101 13.008 3.69101V5.90601H11.873C10.755 5.90601 10.406 6.60001 10.406 7.31301V9.00001H12.902L12.503 11.602H10.406V17.891C14.71 17.216 18 13.492 18 9.00001Z" />
</g>
<defs>
<clipPath id="clip0_2_68">
<rect width="18" height="18" fill="white"/>
</clipPath>
</defs>
</svg>
