<svg width="30" height="23" viewBox="0 0 30 23"  xmlns="http://www.w3.org/2000/svg">
<path fill-rule="evenodd" clip-rule="evenodd" d="M4.5 15.942C4.13886 15.942 3.78127 16.0131 3.44762 16.1513C3.11398 16.2895 2.81082 16.4921 2.55546 16.7475C2.3001 17.0028 2.09753 17.306 1.95933 17.6396C1.82113 17.9733 1.75 18.3309 1.75 18.692C1.75 19.0531 1.82113 19.4107 1.95933 19.7444C2.09753 20.078 2.3001 20.3812 2.55546 20.6365C2.81082 20.8919 3.11398 21.0945 3.44762 21.2327C3.78127 21.3709 4.13886 21.442 4.5 21.442C5.22935 21.442 5.92882 21.1523 6.44454 20.6365C6.96027 20.1208 7.25 19.4213 7.25 18.692C7.25 17.9627 6.96027 17.2632 6.44454 16.7475C5.92882 16.2317 5.22935 15.942 4.5 15.942V15.942ZM0.25 18.692C0.25 18.1339 0.359929 17.5812 0.573512 17.0656C0.787094 16.55 1.10015 16.0814 1.4948 15.6868C1.88945 15.2921 2.35796 14.9791 2.8736 14.7655C3.38923 14.5519 3.94188 14.442 4.5 14.442C5.05812 14.442 5.61077 14.5519 6.1264 14.7655C6.64204 14.9791 7.11056 15.2921 7.5052 15.6868C7.89985 16.0814 8.21291 16.55 8.42649 17.0656C8.64007 17.5812 8.75 18.1339 8.75 18.692C8.75 19.8192 8.30223 20.9002 7.5052 21.6972C6.70817 22.4942 5.62717 22.942 4.5 22.942C3.37283 22.942 2.29183 22.4942 1.4948 21.6972C0.697767 20.9002 0.25 19.8192 0.25 18.692V18.692Z" />
<path fill-rule="evenodd" clip-rule="evenodd" d="M23.47 1.162C23.6106 1.02155 23.8012 0.942657 24 0.942657C24.1988 0.942657 24.3894 1.02155 24.53 1.162L29.53 6.162C29.6705 6.30262 29.7493 6.49325 29.7493 6.692C29.7493 6.89075 29.6705 7.08137 29.53 7.222L24.53 12.222C24.4613 12.2957 24.3785 12.3548 24.2865 12.3958C24.1945 12.4368 24.0952 12.4588 23.9945 12.4606C23.8938 12.4624 23.7938 12.4438 23.7004 12.4061C23.607 12.3684 23.5222 12.3123 23.451 12.241C23.3797 12.1698 23.3236 12.085 23.2859 11.9916C23.2482 11.8982 23.2296 11.7982 23.2314 11.6975C23.2332 11.5968 23.2552 11.4975 23.2962 11.4055C23.3372 11.3135 23.3963 11.2307 23.47 11.162L27.94 6.692L23.47 2.222C23.3295 2.08137 23.2507 1.89075 23.2507 1.692C23.2507 1.49325 23.3295 1.30262 23.47 1.162V1.162Z" />
<path fill-rule="evenodd" clip-rule="evenodd" d="M21 7.442C19.6076 7.442 18.2723 7.99512 17.2877 8.97969C16.3031 9.96426 15.75 11.2996 15.75 12.692C15.75 14.4822 15.0388 16.1991 13.773 17.465C12.5071 18.7308 10.7902 19.442 9 19.442H8C7.80109 19.442 7.61032 19.363 7.46967 19.2223C7.32902 19.0817 7.25 18.8909 7.25 18.692C7.25 18.4931 7.32902 18.3023 7.46967 18.1617C7.61032 18.021 7.80109 17.942 8 17.942H9C10.3924 17.942 11.7277 17.3889 12.7123 16.4043C13.6969 15.4197 14.25 14.0844 14.25 12.692C14.25 10.9018 14.9612 9.1849 16.227 7.91903C17.4929 6.65316 19.2098 5.942 21 5.942H29C29.1989 5.942 29.3897 6.02102 29.5303 6.16167C29.671 6.30232 29.75 6.49309 29.75 6.692C29.75 6.89091 29.671 7.08168 29.5303 7.22233C29.3897 7.36298 29.1989 7.442 29 7.442H21Z" />
</svg>
