<svg width="27" height="26" viewBox="0 0 27 26"  xmlns="http://www.w3.org/2000/svg">
<path fill-rule="evenodd" clip-rule="evenodd" d="M13.342 1.75C7.12899 1.75 2.092 6.787 2.092 13C2.092 19.213 7.12899 24.25 13.342 24.25C19.555 24.25 24.592 19.213 24.592 13C24.592 6.787 19.555 1.75 13.342 1.75ZM0.591995 13C0.591995 5.958 6.29999 0.25 13.342 0.25C20.383 0.25 26.092 5.958 26.092 13C26.092 20.042 20.383 25.75 13.342 25.75C6.29999 25.75 0.591995 20.042 0.591995 13Z" />
<path fill-rule="evenodd" clip-rule="evenodd" d="M14.182 12.857L17.035 13.243C17.281 13.273 17.518 13.356 17.727 13.49L24.51 17.661C24.6795 17.7652 24.8006 17.9325 24.8467 18.126C24.8929 18.3196 24.8602 18.5235 24.756 18.693C24.6518 18.8625 24.4845 18.9836 24.2909 19.0297C24.0974 19.0759 23.8935 19.0432 23.724 18.939L16.936 14.764L16.924 14.756C16.9044 14.7434 16.8821 14.7355 16.859 14.733L16.841 14.731L13.972 14.342C13.9227 14.335 13.8725 14.3446 13.8293 14.3692C13.7861 14.3938 13.7522 14.4321 13.733 14.478L13.727 14.493L12.013 18.333C11.9929 18.3777 11.9863 18.4272 11.9941 18.4756C12.002 18.524 12.0238 18.569 12.057 18.605L14.409 21.145C14.5929 21.3471 14.7277 21.589 14.8028 21.8518C14.8779 22.1146 14.8913 22.3912 14.842 22.66L14.84 22.67L14.352 25.145C14.3356 25.244 14.2994 25.3388 14.2457 25.4236C14.192 25.5084 14.1218 25.5816 14.0392 25.6388C13.9567 25.6959 13.8635 25.736 13.7652 25.7565C13.667 25.777 13.5655 25.7775 13.467 25.7581C13.3685 25.7387 13.2749 25.6997 13.1918 25.6434C13.1086 25.5871 13.0376 25.5147 12.983 25.4305C12.9283 25.3463 12.8911 25.252 12.8736 25.1531C12.8561 25.0542 12.8586 24.9529 12.881 24.855L13.367 22.386C13.374 22.3452 13.3718 22.3033 13.3603 22.2634C13.3489 22.2236 13.3286 22.1869 13.301 22.156L10.951 19.62C10.7193 19.3676 10.5668 19.0527 10.5124 18.7144C10.458 18.3761 10.5041 18.0293 10.645 17.717L12.354 13.888C12.5031 13.5392 12.7629 13.2493 13.0934 13.0631C13.4238 12.8769 13.8064 12.8048 14.182 12.858V12.857Z" />
<path fill-rule="evenodd" clip-rule="evenodd" d="M5.75999 3.26C5.94292 3.33778 6.08749 3.48501 6.16193 3.66933C6.23637 3.85365 6.2346 4.05999 6.15699 4.243L5.03299 6.89C5.00922 6.94855 5.0085 7.01394 5.03099 7.073L6.46899 10.899L6.47399 10.913C6.48741 10.9514 6.51046 10.9857 6.54092 11.0127C6.57138 11.0396 6.60824 11.0583 6.64799 11.067L9.31999 11.641C9.58182 11.6946 9.82761 11.8083 10.038 11.9732C10.2483 12.138 10.4174 12.3495 10.532 12.591L11.001 13.566C11.0238 13.6089 11.0575 13.6451 11.0988 13.6707C11.1401 13.6963 11.1874 13.7106 11.236 13.712H12.916C13.1149 13.712 13.3057 13.791 13.4463 13.9317C13.587 14.0723 13.666 14.2631 13.666 14.462C13.666 14.6609 13.587 14.8517 13.4463 14.9923C13.3057 15.133 13.1149 15.212 12.916 15.212H11.218C10.8941 15.2073 10.5777 15.1141 10.3031 14.9424C10.0284 14.7707 9.80602 14.5271 9.65999 14.238L9.65299 14.225L9.17699 13.235C9.16208 13.2032 9.13994 13.1753 9.11233 13.1536C9.08472 13.1319 9.05241 13.117 9.01799 13.11L9.00899 13.108L6.33499 12.533C6.04567 12.471 5.77694 12.3363 5.5542 12.1415C5.33145 11.9468 5.16204 11.6984 5.06199 11.42L3.62699 7.602C3.46999 7.185 3.47699 6.723 3.64899 6.312L3.65099 6.307L4.77599 3.657C4.8145 3.56629 4.87051 3.48407 4.94081 3.41502C5.01112 3.34598 5.09434 3.29146 5.18572 3.25459C5.2771 3.21772 5.37486 3.19922 5.47339 3.20015C5.57193 3.20108 5.66932 3.22142 5.75999 3.26V3.26Z" />
<path fill-rule="evenodd" clip-rule="evenodd" d="M16.04 0.730998C16.1262 0.683207 16.221 0.652876 16.3189 0.641737C16.4168 0.630599 16.516 0.638872 16.6107 0.666083C16.7055 0.693295 16.7939 0.738912 16.871 0.800326C16.9481 0.861739 17.0123 0.937746 17.06 1.024L18.226 3.129C18.413 3.47281 18.4801 3.86907 18.417 4.2553C18.3538 4.64152 18.1638 4.99571 17.877 5.262L17.869 5.269L14.513 8.301C14.413 8.396 14.3 8.477 14.179 8.544L12.631 9.4C12.382 9.532 12.1057 9.60456 11.824 9.612H9.13199C9.08129 9.61248 9.03181 9.62766 8.98956 9.65571C8.94732 9.68375 8.91412 9.72346 8.89399 9.77L7.85799 12.229C7.81971 12.3198 7.76392 12.4022 7.6938 12.4714C7.62368 12.5407 7.54061 12.5954 7.44933 12.6326C7.35805 12.6697 7.26035 12.6885 7.16181 12.6879C7.06326 12.6873 6.9658 12.6673 6.87499 12.629C6.78418 12.5907 6.7018 12.5349 6.63255 12.4648C6.56331 12.3947 6.50855 12.3116 6.4714 12.2203C6.43426 12.1291 6.41546 12.0314 6.41608 11.9328C6.41669 11.8343 6.43671 11.7368 6.47499 11.646L7.51499 9.179C7.65047 8.86389 7.87498 8.59518 8.16097 8.40582C8.44696 8.21647 8.782 8.1147 9.12499 8.113H11.791C11.8374 8.11058 11.8827 8.09831 11.924 8.077L13.454 7.23C13.4657 7.22384 13.4764 7.2161 13.486 7.207L13.501 7.193L16.858 4.161C16.8995 4.12129 16.9268 4.06911 16.9358 4.01241C16.9448 3.95571 16.9351 3.89762 16.908 3.847L15.748 1.751C15.7002 1.6648 15.6699 1.57002 15.6587 1.47209C15.6476 1.37416 15.6559 1.275 15.6831 1.18027C15.7103 1.08554 15.7559 0.9971 15.8173 0.920011C15.8787 0.842922 15.9547 0.778693 16.041 0.730998H16.04Z" />
</svg>
