<svg width="26" height="25" viewBox="0 0 26 25"  xmlns="http://www.w3.org/2000/svg">
<path fill-rule="evenodd" clip-rule="evenodd" d="M13 10.75C12.4033 10.75 11.831 10.9871 11.409 11.409C10.9871 11.831 10.75 12.4033 10.75 13C10.75 13.5967 10.9871 14.169 11.409 14.591C11.831 15.0129 12.4033 15.25 13 15.25C13.5967 15.25 14.169 15.0129 14.591 14.591C15.0129 14.169 15.25 13.5967 15.25 13C15.25 12.4033 15.0129 11.831 14.591 11.409C14.169 10.9871 13.5967 10.75 13 10.75ZM9.25 13C9.25 12.0054 9.64509 11.0516 10.3483 10.3483C11.0516 9.64509 12.0054 9.25 13 9.25C13.9946 9.25 14.9484 9.64509 15.6517 10.3483C16.3549 11.0516 16.75 12.0054 16.75 13C16.75 13.9946 16.3549 14.9484 15.6517 15.6517C14.9484 16.3549 13.9946 16.75 13 16.75C12.0054 16.75 11.0516 16.3549 10.3483 15.6517C9.64509 14.9484 9.25 13.9946 9.25 13Z" />
<path fill-rule="evenodd" clip-rule="evenodd" d="M9 1.75C8.70453 1.75 8.41194 1.8082 8.13896 1.92127C7.86598 2.03434 7.61794 2.20008 7.40901 2.40901C7.20008 2.61794 7.03434 2.86598 6.92127 3.13896C6.8082 3.41194 6.75 3.70453 6.75 4C6.75 4.29547 6.8082 4.58806 6.92127 4.86104C7.03434 5.13402 7.20008 5.38206 7.40901 5.59099C7.61794 5.79992 7.86598 5.96566 8.13896 6.07873C8.41194 6.1918 8.70453 6.25 9 6.25C9.59674 6.25 10.169 6.01295 10.591 5.59099C11.0129 5.16903 11.25 4.59674 11.25 4C11.25 3.40326 11.0129 2.83097 10.591 2.40901C10.169 1.98705 9.59674 1.75 9 1.75V1.75ZM5.25 4C5.25 3.00544 5.64509 2.05161 6.34835 1.34835C7.05161 0.645088 8.00544 0.25 9 0.25C9.99456 0.25 10.9484 0.645088 11.6517 1.34835C12.3549 2.05161 12.75 3.00544 12.75 4C12.75 4.99456 12.3549 5.94839 11.6517 6.65165C10.9484 7.35491 9.99456 7.75 9 7.75C8.00544 7.75 7.05161 7.35491 6.34835 6.65165C5.64509 5.94839 5.25 4.99456 5.25 4Z" />
<path fill-rule="evenodd" clip-rule="evenodd" d="M22 7.75C21.4033 7.75 20.831 7.98705 20.409 8.40901C19.9871 8.83097 19.75 9.40326 19.75 10C19.75 10.5967 19.9871 11.169 20.409 11.591C20.831 12.0129 21.4033 12.25 22 12.25C22.5967 12.25 23.169 12.0129 23.591 11.591C24.0129 11.169 24.25 10.5967 24.25 10C24.25 9.40326 24.0129 8.83097 23.591 8.40901C23.169 7.98705 22.5967 7.75 22 7.75ZM18.25 10C18.25 9.00544 18.6451 8.05161 19.3483 7.34835C20.0516 6.64509 21.0054 6.25 22 6.25C22.9946 6.25 23.9484 6.64509 24.6517 7.34835C25.3549 8.05161 25.75 9.00544 25.75 10C25.75 10.9946 25.3549 11.9484 24.6517 12.6517C23.9484 13.3549 22.9946 13.75 22 13.75C21.0054 13.75 20.0516 13.3549 19.3483 12.6517C18.6451 11.9484 18.25 10.9946 18.25 10Z" />
<path fill-rule="evenodd" clip-rule="evenodd" d="M22 17.75C21.4033 17.75 20.831 17.9871 20.409 18.409C19.9871 18.831 19.75 19.4033 19.75 20C19.75 20.5967 19.9871 21.169 20.409 21.591C20.831 22.0129 21.4033 22.25 22 22.25C22.5967 22.25 23.169 22.0129 23.591 21.591C24.0129 21.169 24.25 20.5967 24.25 20C24.25 19.4033 24.0129 18.831 23.591 18.409C23.169 17.9871 22.5967 17.75 22 17.75ZM18.25 20C18.25 19.0054 18.6451 18.0516 19.3483 17.3483C20.0516 16.6451 21.0054 16.25 22 16.25C22.9946 16.25 23.9484 16.6451 24.6517 17.3483C25.3549 18.0516 25.75 19.0054 25.75 20C25.75 20.9946 25.3549 21.9484 24.6517 22.6517C23.9484 23.3549 22.9946 23.75 22 23.75C21.0054 23.75 20.0516 23.3549 19.3483 22.6517C18.6451 21.9484 18.25 20.9946 18.25 20Z" />
<path fill-rule="evenodd" clip-rule="evenodd" d="M4 18.75C3.40326 18.75 2.83097 18.9871 2.40901 19.409C1.98705 19.831 1.75 20.4033 1.75 21C1.75 21.5967 1.98705 22.169 2.40901 22.591C2.83097 23.0129 3.40326 23.25 4 23.25C4.59674 23.25 5.16903 23.0129 5.59099 22.591C6.01295 22.169 6.25 21.5967 6.25 21C6.25 20.4033 6.01295 19.831 5.59099 19.409C5.16903 18.9871 4.59674 18.75 4 18.75V18.75ZM0.25 21C0.25 20.0054 0.645088 19.0516 1.34835 18.3483C2.05161 17.6451 3.00544 17.25 4 17.25C4.99456 17.25 5.94839 17.6451 6.65165 18.3483C7.35491 19.0516 7.75 20.0054 7.75 21C7.75 21.9946 7.35491 22.9484 6.65165 23.6517C5.94839 24.3549 4.99456 24.75 4 24.75C3.00544 24.75 2.05161 24.3549 1.34835 23.6517C0.645088 22.9484 0.25 21.9946 0.25 21Z" />
<path fill-rule="evenodd" clip-rule="evenodd" d="M9.906 6.053C9.99595 6.01279 10.0929 5.99069 10.1914 5.98797C10.2899 5.98525 10.388 6.00197 10.48 6.03717C10.5721 6.07236 10.6563 6.12535 10.7278 6.1931C10.7993 6.26085 10.8568 6.34203 10.897 6.432L12.472 9.956C12.5122 10.046 12.5343 10.1429 12.537 10.2414C12.5397 10.3399 12.5229 10.438 12.4877 10.53C12.4526 10.622 12.3996 10.7062 12.3318 10.7778C12.2641 10.8493 12.183 10.9068 12.093 10.947C12.003 10.9872 11.9061 11.0093 11.8076 11.012C11.7091 11.0147 11.611 10.9979 11.519 10.9627C11.427 10.9276 11.3428 10.8746 11.2712 10.8068C11.1997 10.7391 11.1422 10.658 11.102 10.568L9.528 7.043C9.44703 6.86157 9.44136 6.65543 9.51223 6.46982C9.5831 6.28421 9.72472 6.1343 9.906 6.053V6.053Z" />
<path fill-rule="evenodd" clip-rule="evenodd" d="M19.861 10.713C19.8922 10.8064 19.9047 10.9051 19.8978 11.0034C19.8908 11.1016 19.8646 11.1976 19.8206 11.2857C19.7766 11.3738 19.7156 11.4524 19.6412 11.517C19.5668 11.5815 19.4804 11.6308 19.387 11.662L16.087 12.762C15.9935 12.7931 15.8948 12.8055 15.7965 12.7985C15.6982 12.7915 15.6022 12.7652 15.5141 12.721C15.426 12.6769 15.3474 12.6159 15.2829 12.5414C15.2184 12.467 15.1691 12.3805 15.138 12.287C15.1069 12.1935 15.0945 12.0948 15.1015 11.9965C15.1085 11.8982 15.1349 11.8022 15.179 11.7141C15.2231 11.626 15.2841 11.5474 15.3586 11.4829C15.433 11.4184 15.5195 11.3691 15.613 11.338L18.913 10.238C19.1017 10.1753 19.3076 10.1902 19.4853 10.2792C19.6631 10.3683 19.7982 10.5243 19.861 10.713Z" />
<path fill-rule="evenodd" clip-rule="evenodd" d="M14.77 14.377C14.8305 14.2992 14.9058 14.2341 14.9914 14.1854C15.0771 14.1368 15.1716 14.1054 15.2694 14.0933C15.3671 14.0811 15.4664 14.0883 15.5614 14.1145C15.6564 14.1407 15.7453 14.1854 15.823 14.246L20.098 17.571C20.1788 17.6303 20.247 17.7052 20.2984 17.7912C20.3498 17.8773 20.3834 17.9728 20.3973 18.0721C20.4111 18.1714 20.405 18.2724 20.3791 18.3693C20.3532 18.4661 20.3082 18.5568 20.2467 18.636C20.1852 18.7151 20.1085 18.7812 20.021 18.8302C19.9335 18.8791 19.8371 18.9101 19.7375 18.9212C19.6379 18.9323 19.537 18.9233 19.4409 18.8948C19.3448 18.8662 19.2554 18.8187 19.178 18.755L14.902 15.43C14.8242 15.3695 14.7591 15.2942 14.7105 15.2086C14.6618 15.1229 14.6305 15.0284 14.6183 14.9306C14.6061 14.8328 14.6133 14.7336 14.6395 14.6386C14.6658 14.5436 14.7104 14.4547 14.771 14.377H14.77Z" />
<path fill-rule="evenodd" clip-rule="evenodd" d="M11.323 14.49C11.4549 14.6386 11.5225 14.8335 11.5109 15.0318C11.4992 15.2302 11.4094 15.4158 11.261 15.548L6.736 19.573C6.66298 19.6416 6.57696 19.6948 6.48302 19.7296C6.38908 19.7644 6.28913 19.78 6.18906 19.7755C6.08899 19.771 5.99083 19.7466 5.90038 19.7035C5.80992 19.6605 5.72901 19.5998 5.6624 19.5249C5.5958 19.4501 5.54486 19.3627 5.51259 19.2679C5.48032 19.1731 5.46737 19.0727 5.47451 18.9728C5.48165 18.8729 5.50873 18.7754 5.55416 18.6861C5.59958 18.5969 5.66243 18.5176 5.739 18.453L10.264 14.427C10.3376 14.3615 10.4234 14.3112 10.5164 14.2789C10.6095 14.2465 10.708 14.2329 10.8063 14.2386C10.9047 14.2444 11.0009 14.2695 11.0896 14.3124C11.1782 14.3554 11.2575 14.4154 11.323 14.489V14.49Z" />
</svg>
