<svg width="31" height="23" viewBox="0 0 31 23"  xmlns="http://www.w3.org/2000/svg">
<path fill-rule="evenodd" clip-rule="evenodd" d="M15.342 8.25C14.7839 8.25 14.2312 8.35993 13.7156 8.57351C13.2 8.78709 12.7314 9.10015 12.3368 9.4948C11.9421 9.88944 11.6291 10.358 11.4155 10.8736C11.2019 11.3892 11.092 11.9419 11.092 12.5C11.092 13.0581 11.2019 13.6108 11.4155 14.1264C11.6291 14.642 11.9421 15.1106 12.3368 15.5052C12.7314 15.8999 13.2 16.2129 13.7156 16.4265C14.2312 16.6401 14.7839 16.75 15.342 16.75C16.4692 16.75 17.5502 16.3022 18.3472 15.5052C19.1442 14.7082 19.592 13.6272 19.592 12.5C19.592 11.3728 19.1442 10.2918 18.3472 9.4948C17.5502 8.69777 16.4692 8.25 15.342 8.25ZM9.592 12.5C9.592 10.975 10.1978 9.51247 11.2761 8.43414C12.3545 7.3558 13.817 6.75 15.342 6.75C16.867 6.75 18.3295 7.3558 19.4079 8.43414C20.4862 9.51247 21.092 10.975 21.092 12.5C21.092 14.025 20.4862 15.4875 19.4079 16.5659C18.3295 17.6442 16.867 18.25 15.342 18.25C13.817 18.25 12.3545 17.6442 11.2761 16.5659C10.1978 15.4875 9.592 14.025 9.592 12.5V12.5Z" />
<path fill-rule="evenodd" clip-rule="evenodd" d="M26.862 10.96C25.9244 10.4912 24.8902 10.2481 23.842 10.25C23.6431 10.2503 23.4522 10.1715 23.3114 10.031C23.1705 9.89057 23.0913 9.69991 23.091 9.501C23.0907 9.30208 23.1695 9.11121 23.31 8.97037C23.4504 8.82953 23.6411 8.75026 23.84 8.75C25.1215 8.74793 26.3858 9.04531 27.532 9.61843C28.6783 10.1915 29.6747 11.0245 30.442 12.051C30.5037 12.1296 30.549 12.2198 30.5753 12.3162C30.6017 12.4126 30.6085 12.5134 30.5953 12.6124C30.5822 12.7115 30.5494 12.807 30.4988 12.8932C30.4483 12.9794 30.381 13.0546 30.301 13.1145C30.2209 13.1743 30.1297 13.2176 30.0327 13.2417C29.9357 13.2658 29.8349 13.2703 29.7361 13.2549C29.6374 13.2394 29.5427 13.2044 29.4577 13.1519C29.3727 13.0994 29.299 13.0304 29.241 12.949C28.6135 12.1096 27.7985 11.4285 26.861 10.96H26.862Z" />
<path fill-rule="evenodd" clip-rule="evenodd" d="M6.84 10.25C5.79219 10.2483 4.75848 10.4915 3.82128 10.9601C2.88409 11.4287 2.06934 12.1097 1.442 12.949C1.32109 13.1032 1.14466 13.2039 0.950442 13.2296C0.756223 13.2554 0.559636 13.2041 0.402728 13.0868C0.245821 12.9695 0.14105 12.7954 0.110826 12.6019C0.0806017 12.4083 0.127323 12.2106 0.240997 12.051C1.00826 11.0245 2.00473 10.1915 3.15096 9.61843C4.29719 9.04531 5.56147 8.74793 6.843 8.75C7.04191 8.75039 7.23252 8.82979 7.37289 8.97073C7.51326 9.11166 7.5919 9.30258 7.5915 9.5015C7.5911 9.70041 7.5117 9.89102 7.37077 10.0314C7.22983 10.1718 7.03891 10.2504 6.84 10.25Z" />
<path fill-rule="evenodd" clip-rule="evenodd" d="M15.342 18.253C13.9816 18.253 12.6486 18.635 11.4948 19.3557C10.341 20.0763 9.41282 21.1065 8.81599 22.329C8.77279 22.4175 8.71257 22.4966 8.63879 22.5619C8.565 22.6271 8.47908 22.6772 8.38595 22.7092C8.29281 22.7413 8.19427 22.7546 8.09597 22.7486C7.99766 22.7426 7.90151 22.7172 7.81299 22.674C7.72448 22.6308 7.64535 22.5706 7.58011 22.4968C7.51487 22.423 7.4648 22.3371 7.43277 22.244C7.40073 22.1508 7.38735 22.0523 7.3934 21.954C7.39944 21.8557 7.42479 21.7595 7.468 21.671C8.18829 20.1963 9.30827 18.9534 10.7004 18.0841C12.0925 17.2147 13.7007 16.7538 15.342 16.7538C16.9832 16.7538 18.5915 17.2147 19.9836 18.0841C21.3757 18.9534 22.4957 20.1963 23.216 21.671C23.2592 21.7595 23.2845 21.8557 23.2906 21.954C23.2966 22.0523 23.2833 22.1508 23.2512 22.244C23.2192 22.3371 23.1691 22.423 23.1039 22.4968C23.0386 22.5706 22.9595 22.6308 22.871 22.674C22.7825 22.7172 22.6863 22.7426 22.588 22.7486C22.4897 22.7546 22.3912 22.7413 22.298 22.7092C22.2049 22.6772 22.119 22.6271 22.0452 22.5619C21.9714 22.4966 21.9112 22.4175 21.868 22.329C21.2711 21.1066 20.3429 20.0764 19.1891 19.3558C18.0353 18.6352 16.7023 18.2531 15.342 18.253V18.253Z" />
<path fill-rule="evenodd" clip-rule="evenodd" d="M7.645 2.352C7.19815 2.23733 6.732 2.21911 6.27756 2.29854C5.82312 2.37798 5.3908 2.55325 5.00934 2.81271C4.62789 3.07216 4.30604 3.40986 4.0652 3.80333C3.82436 4.19681 3.67005 4.63705 3.61253 5.09478C3.55501 5.55251 3.5956 6.01724 3.7316 6.45807C3.86759 6.8989 4.09588 7.30573 4.40128 7.6515C4.70668 7.99727 5.0822 8.27405 5.50285 8.46346C5.92351 8.65286 6.37967 8.75054 6.841 8.75C6.93949 8.74993 7.03703 8.76927 7.12805 8.8069C7.21907 8.84453 7.30178 8.89972 7.37147 8.96931C7.44117 9.03891 7.49647 9.12155 7.53422 9.21252C7.57197 9.30349 7.59143 9.40101 7.5915 9.4995C7.59156 9.59799 7.57223 9.69553 7.5346 9.78655C7.49697 9.87757 7.44178 9.96028 7.37218 10.03C7.30258 10.0997 7.21994 10.155 7.12897 10.1927C7.038 10.2305 6.94049 10.2499 6.842 10.25C5.94042 10.2509 5.0572 9.99524 4.29554 9.51284C3.53388 9.03043 2.92524 8.34122 2.54075 7.52575C2.15625 6.71027 2.01177 5.80221 2.1242 4.90767C2.23663 4.01313 2.60132 3.16906 3.17565 2.47409C3.74998 1.77912 4.51024 1.26196 5.36759 0.983036C6.22493 0.70411 7.14396 0.674941 8.01726 0.898938C8.89057 1.12294 9.68209 1.59085 10.2993 2.248C10.9166 2.90514 11.3341 3.72439 11.503 4.61C11.5339 4.8027 11.4885 4.99986 11.3763 5.15961C11.2642 5.31936 11.0943 5.42911 10.9025 5.46556C10.7108 5.502 10.5124 5.46227 10.3495 5.35481C10.1866 5.24734 10.072 5.0806 10.03 4.89C9.91422 4.28426 9.62848 3.72397 9.20616 3.27456C8.78385 2.82515 8.24238 2.50517 7.645 2.352V2.352Z" />
<path fill-rule="evenodd" clip-rule="evenodd" d="M24.851 2.41C24.4124 2.26726 23.9485 2.2195 23.4901 2.26988C23.0317 2.32027 22.5892 2.46765 22.1921 2.70223C21.795 2.93681 21.4524 3.25322 21.187 3.63043C20.9217 4.00764 20.7396 4.43701 20.653 4.89C20.6371 4.98904 20.6015 5.0839 20.5483 5.16894C20.4951 5.25399 20.4254 5.3275 20.3433 5.38513C20.2612 5.44276 20.1684 5.48333 20.0703 5.50444C19.9723 5.52556 19.871 5.52678 19.7724 5.50805C19.6739 5.48932 19.5801 5.45101 19.4966 5.39538C19.4131 5.33976 19.3416 5.26796 19.2864 5.18422C19.2312 5.10049 19.1933 5.00653 19.175 4.90789C19.1567 4.80926 19.1584 4.70796 19.18 4.61C19.3489 3.72435 19.7664 2.90507 20.3837 2.2479C21.001 1.59074 21.7926 1.12284 22.666 0.898876C23.5393 0.674914 24.4584 0.704145 25.3158 0.983152C26.1731 1.26216 26.9334 1.77942 27.5077 2.47448C28.082 3.16954 28.4466 4.01369 28.5589 4.90829C28.6712 5.80289 28.5266 6.71097 28.1419 7.52642C27.7573 8.34188 27.1485 9.03102 26.3867 9.51331C25.6249 9.99559 24.7416 10.2511 23.84 10.25C23.6411 10.2497 23.4504 10.1705 23.31 10.0296C23.1695 9.88878 23.0907 9.69791 23.091 9.499C23.0913 9.30008 23.1705 9.10942 23.3114 8.96896C23.4522 8.82849 23.6431 8.74973 23.842 8.75C24.6158 8.75067 25.3645 8.47522 25.9533 7.97318C26.5422 7.47115 26.9326 6.77548 27.0544 6.01129C27.1761 5.24711 27.0212 4.46457 26.6175 3.80441C26.2137 3.14425 25.5877 2.6498 24.852 2.41H24.851Z" />
</svg>
