<svg width="18" height="18" viewBox="0 0 18 18"  xmlns="http://www.w3.org/2000/svg">
<path d="M8.99999 14.3281C9.47459 14.3281 9.85939 13.9434 9.85939 13.4688C9.85939 12.9941 9.47459 12.6094 8.99999 12.6094C8.52539 12.6094 8.14059 12.9941 8.14059 13.4688C8.14059 13.9434 8.52539 14.3281 8.99999 14.3281Z" />
<path fill-rule="evenodd" clip-rule="evenodd" d="M9 1.5C4.85786 1.5 1.5 4.85786 1.5 9C1.5 13.1421 4.85786 16.5 9 16.5C13.1421 16.5 16.5 13.1421 16.5 9C16.5 4.85786 13.1421 1.5 9 1.5ZM0 9C0 4.02944 4.02944 0 9 0C13.9706 0 18 4.02944 18 9C18 13.9706 13.9706 18 9 18C4.02944 18 0 13.9706 0 9ZM7.79216 4.36526C8.3689 4.12637 9.0035 4.06386 9.6158 4.18565C10.228 4.30743 10.7904 4.60804 11.2318 5.04945C11.6732 5.49086 11.9738 6.05324 12.0956 6.6655C12.2174 7.27775 12.1549 7.91237 11.916 8.4891C11.6771 9.0658 11.2726 9.5588 10.7535 9.9056C10.4457 10.1112 10.1058 10.26 9.75 10.3471V10.375C9.75 10.7892 9.4142 11.125 9 11.125C8.5858 11.125 8.25 10.7892 8.25 10.375V9.6875C8.25 9.4886 8.329 9.2978 8.4697 9.1572C8.6103 9.0165 8.8011 8.9375 9 8.9375C9.3276 8.9375 9.6478 8.8404 9.9202 8.6584C10.1925 8.4764 10.4048 8.2177 10.5302 7.91507C10.6555 7.61243 10.6883 7.27941 10.6244 6.95813C10.5605 6.63685 10.4028 6.34174 10.1711 6.11011C9.9395 5.87848 9.6444 5.72073 9.3231 5.65683C9.0018 5.59292 8.6688 5.62572 8.3662 5.75108C8.0635 5.87643 7.80487 6.08872 7.62288 6.36109C7.44089 6.63346 7.34375 6.95368 7.34375 7.28125C7.34375 7.69546 7.00796 8.0313 6.59375 8.0313C6.17954 8.0313 5.84375 7.69546 5.84375 7.28125C5.84375 6.657 6.02886 6.04678 6.37567 5.52773C6.72249 5.00869 7.21543 4.60415 7.79216 4.36526Z" />
</svg>
