<svg width="27" height="22" viewBox="0 0 27 22"  xmlns="http://www.w3.org/2000/svg">
<path fill-rule="evenodd" clip-rule="evenodd" d="M15.592 9C15.592 8.80109 15.671 8.61032 15.8117 8.46967C15.9523 8.32902 16.1431 8.25 16.342 8.25H21.342C21.5409 8.25 21.7317 8.32902 21.8723 8.46967C22.013 8.61032 22.092 8.80109 22.092 9C22.092 9.19891 22.013 9.38968 21.8723 9.53033C21.7317 9.67098 21.5409 9.75 21.342 9.75H16.342C16.1431 9.75 15.9523 9.67098 15.8117 9.53033C15.671 9.38968 15.592 9.19891 15.592 9V9Z" />
<path fill-rule="evenodd" clip-rule="evenodd" d="M15.592 13C15.592 12.8011 15.671 12.6103 15.8117 12.4697C15.9523 12.329 16.1431 12.25 16.342 12.25H21.342C21.5409 12.25 21.7317 12.329 21.8723 12.4697C22.013 12.6103 22.092 12.8011 22.092 13C22.092 13.1989 22.013 13.3897 21.8723 13.5303C21.7317 13.671 21.5409 13.75 21.342 13.75H16.342C16.1431 13.75 15.9523 13.671 15.8117 13.5303C15.671 13.3897 15.592 13.1989 15.592 13Z" />
<path fill-rule="evenodd" clip-rule="evenodd" d="M8.854 7.75C8.25727 7.75 7.68497 7.98705 7.26301 8.40901C6.84106 8.83097 6.604 9.40326 6.604 10C6.604 10.5967 6.84106 11.169 7.26301 11.591C7.68497 12.0129 8.25727 12.25 8.854 12.25C9.45074 12.25 10.023 12.0129 10.445 11.591C10.867 11.169 11.104 10.5967 11.104 10C11.104 9.40326 10.867 8.83097 10.445 8.40901C10.023 7.98705 9.45074 7.75 8.854 7.75V7.75ZM5.104 10C5.104 9.00544 5.49909 8.05161 6.20235 7.34835C6.90561 6.64509 7.85944 6.25 8.854 6.25C9.84857 6.25 10.8024 6.64509 11.5057 7.34835C12.2089 8.05161 12.604 9.00544 12.604 10C12.604 10.9946 12.2089 11.9484 11.5057 12.6517C10.8024 13.3549 9.84857 13.75 8.854 13.75C7.85944 13.75 6.90561 13.3549 6.20235 12.6517C5.49909 11.9484 5.104 10.9946 5.104 10Z" />
<path fill-rule="evenodd" clip-rule="evenodd" d="M8.854 13.742C8.13241 13.7421 7.43139 13.9823 6.86142 14.4249C6.29145 14.8674 5.88495 15.487 5.706 16.186C5.65453 16.3763 5.53019 16.5387 5.35987 16.6381C5.18956 16.7374 4.98699 16.7657 4.79598 16.7168C4.60498 16.6679 4.44091 16.5457 4.33929 16.3768C4.23767 16.2078 4.20667 16.0056 4.253 15.814C4.51465 14.7923 5.10888 13.8868 5.94203 13.2401C6.77517 12.5934 7.79984 12.2424 8.8545 12.2424C9.90915 12.2424 10.9338 12.5934 11.767 13.2401C12.6001 13.8868 13.1943 14.7923 13.456 15.814C13.4819 15.9099 13.4885 16.01 13.4755 16.1085C13.4624 16.2069 13.4299 16.3018 13.3798 16.3877C13.3298 16.4735 13.2632 16.5485 13.1839 16.6083C13.1046 16.6682 13.0142 16.7117 12.918 16.7363C12.8218 16.761 12.7216 16.7663 12.6233 16.7519C12.525 16.7375 12.4306 16.7037 12.3454 16.6525C12.2603 16.6013 12.1862 16.5337 12.1274 16.4536C12.0686 16.3735 12.0263 16.2826 12.003 16.186C11.824 15.4868 11.4174 14.8671 10.8472 14.4245C10.277 13.982 9.57575 13.7419 8.854 13.742V13.742Z" />
<path fill-rule="evenodd" clip-rule="evenodd" d="M2.34201 1.75C2.27571 1.75 2.21212 1.77634 2.16523 1.82322C2.11835 1.87011 2.09201 1.9337 2.09201 2V20C2.09201 20.138 2.20401 20.25 2.34201 20.25H24.342C24.4083 20.25 24.4719 20.2237 24.5188 20.1768C24.5657 20.1299 24.592 20.0663 24.592 20V2C24.592 1.9337 24.5657 1.87011 24.5188 1.82322C24.4719 1.77634 24.4083 1.75 24.342 1.75H2.34201V1.75ZM0.59201 2C0.59201 1.034 1.37501 0.25 2.34201 0.25H24.342C25.308 0.25 26.092 1.034 26.092 2V20C26.092 20.4641 25.9076 20.9092 25.5794 21.2374C25.2513 21.5656 24.8061 21.75 24.342 21.75H2.34201C1.87788 21.75 1.43276 21.5656 1.10457 21.2374C0.776385 20.9092 0.59201 20.4641 0.59201 20V2Z" />
</svg>
