<svg width="18" height="18" viewBox="0 0 18 18"  xmlns="http://www.w3.org/2000/svg">
<path d="M9 1.62C11.405 1.62 11.69 1.631 12.635 1.673C13.515 1.713 13.989 1.86 14.305 1.983C14.723 2.145 15.025 2.341 15.339 2.654C15.655 2.971 15.849 3.27 16.01 3.688C16.133 4.004 16.28 4.482 16.32 5.358C16.362 6.307 16.372 6.592 16.372 8.993C16.372 11.398 16.362 11.683 16.32 12.628C16.28 13.507 16.133 13.982 16.01 14.298C15.848 14.716 15.652 15.018 15.339 15.332C15.022 15.648 14.723 15.842 14.305 16.003C13.989 16.126 13.511 16.273 12.635 16.313C11.685 16.355 11.401 16.365 9 16.365C6.595 16.365 6.31 16.355 5.365 16.313C4.485 16.273 4.011 16.126 3.695 16.003C3.30451 15.8594 2.95118 15.6301 2.661 15.332C2.36246 15.0421 2.13311 14.6887 1.99 14.298C1.867 13.982 1.72 13.504 1.68 12.628C1.638 11.678 1.628 11.394 1.628 8.993C1.628 6.588 1.638 6.303 1.68 5.358C1.72 4.478 1.867 4.004 1.99 3.688C2.152 3.27 2.348 2.968 2.661 2.654C2.978 2.338 3.277 2.144 3.695 1.983C4.011 1.86 4.489 1.713 5.365 1.673C6.311 1.631 6.595 1.621 9 1.621V1.62ZM9 0C6.557 0 6.25 0.01 5.291 0.053C4.335 0.095 3.677 0.25 3.108 0.47C2.50634 0.695759 1.96153 1.05077 1.512 1.51C1.05356 1.95901 0.69864 2.50266 0.472 3.103C0.25 3.677 0.094 4.331 0.051 5.287C0.012 6.252 0 6.557 0 9C0 11.443 0.01 11.75 0.053 12.709C0.095 13.665 0.25 14.323 0.471 14.892C0.696759 15.4937 1.05177 16.0385 1.511 16.488C1.9601 16.9456 2.50379 17.2995 3.104 17.525C3.677 17.747 4.331 17.902 5.287 17.944C6.247 17.986 6.553 17.997 8.997 17.997C11.44 17.997 11.746 17.986 12.706 17.944C13.662 17.902 14.319 17.747 14.889 17.525C15.4889 17.2994 16.0322 16.9455 16.481 16.488C16.9385 16.0392 17.2924 15.4959 17.518 14.896C17.74 14.323 17.895 13.669 17.937 12.712C17.979 11.752 17.989 11.447 17.989 9.004C17.989 6.56 17.979 6.254 17.937 5.294C17.894 4.338 17.74 3.681 17.518 3.111C17.3011 2.50614 16.9488 1.95887 16.488 1.511C16.039 1.05424 15.4957 0.701016 14.896 0.476C14.323 0.254 13.669 0.099 12.712 0.057C11.75 0.011 11.444 0 9 0Z" />
<path d="M9.00001 4.37701C7.79056 4.40217 6.63913 4.90029 5.79268 5.76453C4.94623 6.62877 4.47217 7.79031 4.47217 9.00001C4.47217 10.2097 4.94623 11.3713 5.79268 12.2355C6.63913 13.0997 7.79056 13.5979 9.00001 13.623C10.2095 13.5979 11.3609 13.0997 12.2073 12.2355C13.0538 11.3713 13.5278 10.2097 13.5278 9.00001C13.5278 7.79031 13.0538 6.62877 12.2073 5.76453C11.3609 4.90029 10.2095 4.40217 9.00001 4.37701V4.37701ZM9.00001 11.999C8.6015 12.0063 8.20553 11.9341 7.83525 11.7866C7.46496 11.6391 7.12777 11.4194 6.84337 11.1401C6.55897 10.8609 6.33307 10.5277 6.17887 10.1602C6.02466 9.79267 5.94524 9.39809 5.94524 8.99951C5.94524 8.60094 6.02466 8.20636 6.17887 7.83883C6.33307 7.47129 6.55897 7.13817 6.84337 6.85892C7.12777 6.57967 7.46496 6.35989 7.83525 6.21242C8.20553 6.06494 8.6015 5.99274 9.00001 6.00001C9.79566 6.00001 10.5587 6.31608 11.1213 6.87869C11.6839 7.4413 12 8.20436 12 9.00001C12 9.79566 11.6839 10.5587 11.1213 11.1213C10.5587 11.6839 9.79566 12 9.00001 12V11.999Z" />
<path d="M14.885 4.19401C14.8894 4.33854 14.8647 4.48248 14.8125 4.61729C14.7602 4.75211 14.6814 4.87505 14.5807 4.97884C14.48 5.08263 14.3595 5.16514 14.2264 5.22149C14.0932 5.27784 13.9501 5.30687 13.8055 5.30687C13.6609 5.30687 13.5178 5.27784 13.3846 5.22149C13.2515 5.16514 13.131 5.08263 13.0303 4.97884C12.9296 4.87505 12.8508 4.75211 12.7985 4.61729C12.7463 4.48248 12.7216 4.33854 12.726 4.19401C12.726 3.90758 12.8398 3.63288 13.0423 3.43034C13.2449 3.2278 13.5196 3.11401 13.806 3.11401C14.0924 3.11401 14.3671 3.2278 14.5697 3.43034C14.7722 3.63288 14.886 3.90758 14.886 4.19401H14.885Z" />
</svg>
