<svg width="24" height="24" viewBox="0 0 24 24"  xmlns="http://www.w3.org/2000/svg">
<path fill-rule="evenodd" clip-rule="evenodd" d="M7.245 7.78299C7.245 7.58408 7.32401 7.39331 7.46467 7.25266C7.60532 7.11201 7.79608 7.03299 7.995 7.03299H15.995C16.1939 7.03299 16.3847 7.11201 16.5253 7.25266C16.666 7.39331 16.745 7.58408 16.745 7.78299C16.745 7.9819 16.666 8.17267 16.5253 8.31332C16.3847 8.45397 16.1939 8.53299 15.995 8.53299H7.995C7.79608 8.53299 7.60532 8.45397 7.46467 8.31332C7.32401 8.17267 7.245 7.9819 7.245 7.78299V7.78299Z" />
<path fill-rule="evenodd" clip-rule="evenodd" d="M7.245 11.783C7.245 11.5841 7.32401 11.3933 7.46467 11.2527C7.60532 11.112 7.79608 11.033 7.995 11.033H15.995C16.1939 11.033 16.3847 11.112 16.5253 11.2527C16.666 11.3933 16.745 11.5841 16.745 11.783C16.745 11.9819 16.666 12.1727 16.5253 12.3133C16.3847 12.454 16.1939 12.533 15.995 12.533H7.995C7.79608 12.533 7.60532 12.454 7.46467 12.3133C7.32401 12.1727 7.245 11.9819 7.245 11.783V11.783Z" />
<path fill-rule="evenodd" clip-rule="evenodd" d="M7.245 15.783C7.245 15.5841 7.32401 15.3933 7.46467 15.2527C7.60532 15.112 7.79608 15.033 7.995 15.033H11.995C12.1939 15.033 12.3847 15.112 12.5253 15.2527C12.666 15.3933 12.745 15.5841 12.745 15.783C12.745 15.9819 12.666 16.1727 12.5253 16.3133C12.3847 16.454 12.1939 16.533 11.995 16.533H7.995C7.79608 16.533 7.60532 16.454 7.46467 16.3133C7.32401 16.1727 7.245 15.9819 7.245 15.783V15.783Z" />
<path fill-rule="evenodd" clip-rule="evenodd" d="M1.995 1.53299C1.92869 1.53299 1.8651 1.55933 1.81822 1.60621C1.77133 1.6531 1.745 1.71669 1.745 1.78299V21.783C1.745 21.8493 1.77133 21.9129 1.81822 21.9598C1.8651 22.0067 1.92869 22.033 1.995 22.033H15.582V22.783L15.585 22.033C15.6162 22.0331 15.647 22.0271 15.6759 22.0152C15.7047 22.0034 15.7309 21.986 15.753 21.964L22.175 15.541C22.2195 15.4964 22.2446 15.436 22.245 15.373V1.78299C22.245 1.71669 22.2187 1.6531 22.1718 1.60621C22.1249 1.55933 22.0613 1.53299 21.995 1.53299H1.995V1.53299ZM16.5 23.533H1.995C1.53087 23.533 1.08575 23.3486 0.757558 23.0204C0.42937 22.6922 0.244995 22.2471 0.244995 21.783V1.78299C0.244995 1.31886 0.42937 0.873741 0.757558 0.545553C1.08575 0.217364 1.53087 0.0329895 1.995 0.0329895H21.995C22.4591 0.0329895 22.9042 0.217364 23.2324 0.545553C23.5606 0.873741 23.745 1.31886 23.745 1.78299V16" />
<path fill-rule="evenodd" clip-rule="evenodd" d="M15.244 15.783C15.244 15.5841 15.323 15.3933 15.4637 15.2527C15.6043 15.112 15.7951 15.033 15.994 15.033H22.907C23.1059 15.033 23.2967 15.112 23.4373 15.2527C23.578 15.3933 23.657 15.5841 23.657 15.783C23.657 15.9819 23.578 16.1727 23.4373 16.3133C23.2967 16.454 23.1059 16.533 22.907 16.533H16.744V22.695C16.744 22.8939 16.665 23.0847 16.5243 23.2253C16.3837 23.366 16.1929 23.445 15.994 23.445C15.7951 23.445 15.6043 23.366 15.4637 23.2253C15.323 23.0847 15.244 22.8939 15.244 22.695V15.783Z" />
</svg>
