<svg width="26" height="27" viewBox="0 0 26 27"  xmlns="http://www.w3.org/2000/svg">
<path fill-rule="evenodd" clip-rule="evenodd" d="M2 4.75C1.9337 4.75 1.87011 4.77634 1.82322 4.82322C1.77634 4.87011 1.75 4.9337 1.75 5V20C1.75 20.138 1.862 20.25 2 20.25H24C24.0663 20.25 24.1299 20.2237 24.1768 20.1768C24.2237 20.1299 24.25 20.0663 24.25 20V5C24.25 4.9337 24.2237 4.87011 24.1768 4.82322C24.1299 4.77634 24.0663 4.75 24 4.75H2ZM0.25 5C0.25 4.034 1.034 3.25 2 3.25H24C24.966 3.25 25.75 4.034 25.75 5V20C25.75 20.4641 25.5656 20.9092 25.2374 21.2374C24.9092 21.5656 24.4641 21.75 24 21.75H2C1.53587 21.75 1.09075 21.5656 0.762563 21.2374C0.434375 20.9092 0.25 20.4641 0.25 20V5Z" />
<path fill-rule="evenodd" clip-rule="evenodd" d="M16.532 20.414C16.6873 20.2898 16.8856 20.2323 17.0832 20.2543C17.2809 20.2762 17.4617 20.3758 17.586 20.531L21.586 25.531C21.6476 25.608 21.6934 25.6963 21.7209 25.791C21.7483 25.8856 21.7569 25.9848 21.746 26.0827C21.7351 26.1807 21.7051 26.2756 21.6576 26.3619C21.61 26.4483 21.546 26.5244 21.469 26.586C21.392 26.6476 21.3037 26.6934 21.209 26.7209C21.1144 26.7483 21.0152 26.7569 20.9173 26.746C20.8193 26.7351 20.7244 26.7051 20.6381 26.6576C20.5517 26.61 20.4756 26.546 20.414 26.469L16.414 21.469C16.3523 21.3921 16.3064 21.3038 16.279 21.2091C16.2515 21.1144 16.2429 21.0152 16.2538 20.9173C16.2646 20.8193 16.2947 20.7244 16.3423 20.638C16.3899 20.5517 16.454 20.4756 16.531 20.414H16.532Z" />
<path fill-rule="evenodd" clip-rule="evenodd" d="M9.469 20.414C9.62425 20.5383 9.72379 20.7191 9.74573 20.9168C9.76767 21.1144 9.71022 21.3127 9.586 21.468L5.586 26.468C5.52499 26.5463 5.44906 26.6117 5.3626 26.6604C5.27613 26.7091 5.18086 26.7402 5.0823 26.7518C4.98374 26.7634 4.88385 26.7554 4.78843 26.7281C4.693 26.7009 4.60393 26.6549 4.52638 26.593C4.44883 26.5311 4.38435 26.4544 4.33666 26.3673C4.28898 26.2803 4.25904 26.1847 4.24859 26.086C4.23813 25.9873 4.24737 25.8875 4.27577 25.7924C4.30416 25.6973 4.35114 25.6088 4.414 25.532L8.414 20.532C8.47547 20.4549 8.55154 20.3907 8.63786 20.343C8.72417 20.2954 8.81904 20.2652 8.91703 20.2542C9.01502 20.2433 9.11421 20.2517 9.20892 20.2791C9.30363 20.3066 9.39201 20.3524 9.469 20.414Z" />
<path fill-rule="evenodd" clip-rule="evenodd" d="M9 12.25C9.19891 12.25 9.38968 12.329 9.53033 12.4697C9.67098 12.6103 9.75 12.8011 9.75 13V16C9.75 16.1989 9.67098 16.3897 9.53033 16.5303C9.38968 16.671 9.19891 16.75 9 16.75C8.80109 16.75 8.61032 16.671 8.46967 16.5303C8.32902 16.3897 8.25 16.1989 8.25 16V13C8.25 12.8011 8.32902 12.6103 8.46967 12.4697C8.61032 12.329 8.80109 12.25 9 12.25Z" />
<path fill-rule="evenodd" clip-rule="evenodd" d="M13 10.25C13.1989 10.25 13.3897 10.329 13.5303 10.4697C13.671 10.6103 13.75 10.8011 13.75 11V16C13.75 16.1989 13.671 16.3897 13.5303 16.5303C13.3897 16.671 13.1989 16.75 13 16.75C12.8011 16.75 12.6103 16.671 12.4697 16.5303C12.329 16.3897 12.25 16.1989 12.25 16V11C12.25 10.8011 12.329 10.6103 12.4697 10.4697C12.6103 10.329 12.8011 10.25 13 10.25Z" />
<path fill-rule="evenodd" clip-rule="evenodd" d="M17 8.25C17.1989 8.25 17.3897 8.32902 17.5303 8.46967C17.671 8.61032 17.75 8.80109 17.75 9V16C17.75 16.1989 17.671 16.3897 17.5303 16.5303C17.3897 16.671 17.1989 16.75 17 16.75C16.8011 16.75 16.6103 16.671 16.4697 16.5303C16.329 16.3897 16.25 16.1989 16.25 16V9C16.25 8.80109 16.329 8.61032 16.4697 8.46967C16.6103 8.32902 16.8011 8.25 17 8.25V8.25Z" />
<path fill-rule="evenodd" clip-rule="evenodd" d="M13 0.25C13.1989 0.25 13.3897 0.329018 13.5303 0.46967C13.671 0.610322 13.75 0.801088 13.75 1V4C13.75 4.19891 13.671 4.38968 13.5303 4.53033C13.3897 4.67098 13.1989 4.75 13 4.75C12.8011 4.75 12.6103 4.67098 12.4697 4.53033C12.329 4.38968 12.25 4.19891 12.25 4V1C12.25 0.801088 12.329 0.610322 12.4697 0.46967C12.6103 0.329018 12.8011 0.25 13 0.25Z" />
</svg>
