<svg width="16" height="16" viewBox="0 0 16 16"  xmlns="http://www.w3.org/2000/svg" >
<path d="M10.917 9.667H10.258L10.025 9.442C10.8697 8.46194 11.334 7.21086 11.333 5.917C11.3332 4.84553 11.0156 3.79807 10.4205 2.9071C9.82533 2.01612 8.97932 1.32166 7.98945 0.911531C6.99959 0.501407 5.91032 0.394048 4.85944 0.603033C3.80855 0.812017 2.84324 1.32796 2.0856 2.0856C1.32796 2.84324 0.812017 3.80855 0.603033 4.85944C0.394048 5.91032 0.501407 6.99959 0.911531 7.98945C1.32166 8.97932 2.01612 9.82533 2.9071 10.4205C3.79807 11.0156 4.84553 11.3332 5.917 11.333C7.21086 11.334 8.46194 10.8697 9.442 10.025L9.667 10.258V10.917L13.833 15.075L15.075 13.833L10.917 9.667V9.667ZM5.917 9.667C5.42435 9.66765 4.93642 9.57111 4.48115 9.38288C4.02589 9.19466 3.61223 8.91846 3.26388 8.57011C2.91553 8.22176 2.63933 7.8081 2.45111 7.35284C2.26288 6.89757 2.16634 6.40964 2.167 5.917C2.16634 5.42435 2.26288 4.93642 2.45111 4.48115C2.63933 4.02589 2.91553 3.61223 3.26388 3.26388C3.61223 2.91553 4.02589 2.63933 4.48115 2.45111C4.93642 2.26288 5.42435 2.16634 5.917 2.167C6.40964 2.16634 6.89757 2.26288 7.35284 2.45111C7.8081 2.63933 8.22176 2.91553 8.57011 3.26388C8.91846 3.61223 9.19466 4.02589 9.38288 4.48115C9.57111 4.93642 9.66765 5.42435 9.667 5.917C9.66765 6.40964 9.57111 6.89757 9.38288 7.35284C9.19466 7.8081 8.91846 8.22176 8.57011 8.57011C8.22176 8.91846 7.8081 9.19466 7.35284 9.38288C6.89757 9.57111 6.40964 9.66765 5.917 9.667V9.667Z" />
</svg>
