<svg width="26" height="28" viewBox="0 0 26 28"  xmlns="http://www.w3.org/2000/svg">
<path fill-rule="evenodd" clip-rule="evenodd" d="M0.352013 19.39C0.401634 19.3049 0.46754 19.2304 0.545964 19.1708C0.624388 19.1111 0.713794 19.0675 0.809074 19.0425C0.904353 19.0174 1.00364 19.0113 1.10126 19.0246C1.19888 19.0379 1.29292 19.0704 1.37801 19.12L13 25.9L24.622 19.12C24.7939 19.0198 24.9985 18.9919 25.1909 19.0425C25.3833 19.0932 25.5478 19.2182 25.648 19.39C25.7483 19.5619 25.7761 19.7665 25.7255 19.9589C25.6749 20.1514 25.5499 20.3158 25.378 20.416L13.378 27.416C13.2633 27.483 13.1328 27.5182 13 27.5182C12.8672 27.5182 12.7367 27.483 12.622 27.416L0.622013 20.416C0.450385 20.3158 0.32555 20.1516 0.274925 19.9594C0.2243 19.7672 0.252026 19.5628 0.352013 19.391V19.39Z" />
<path fill-rule="evenodd" clip-rule="evenodd" d="M0.352013 13.39C0.401634 13.3049 0.46754 13.2304 0.545964 13.1708C0.624388 13.1111 0.713794 13.0675 0.809074 13.0425C0.904353 13.0174 1.00364 13.0113 1.10126 13.0246C1.19888 13.0379 1.29292 13.0704 1.37801 13.12L13 19.9L24.622 13.12C24.7939 13.0198 24.9985 12.9919 25.1909 13.0425C25.3833 13.0932 25.5478 13.2182 25.648 13.39C25.7483 13.5619 25.7761 13.7665 25.7255 13.9589C25.6749 14.1514 25.5499 14.3158 25.378 14.416L13.378 21.416C13.2633 21.483 13.1328 21.5182 13 21.5182C12.8672 21.5182 12.7367 21.483 12.622 21.416L0.622013 14.416C0.450385 14.3158 0.32555 14.1516 0.274925 13.9594C0.2243 13.7672 0.252026 13.5628 0.352013 13.391V13.39Z" />
<path fill-rule="evenodd" clip-rule="evenodd" d="M12.622 0.120014C12.7367 0.0530682 12.8672 0.0177917 13 0.0177917C13.1328 0.0177917 13.2633 0.0530682 13.378 0.120014L25.378 7.12001C25.4913 7.18604 25.5853 7.28062 25.6507 7.39433C25.716 7.50803 25.7504 7.63687 25.7504 7.76801C25.7504 7.89915 25.716 8.028 25.6507 8.1417C25.5853 8.2554 25.4913 8.34999 25.378 8.41601L13.378 15.416C13.2633 15.483 13.1328 15.5182 13 15.5182C12.8672 15.5182 12.7367 15.483 12.622 15.416L0.622013 8.41601C0.508941 8.34992 0.415148 8.25537 0.349967 8.14177C0.284785 8.02817 0.250488 7.89949 0.250488 7.76851C0.250488 7.63754 0.284785 7.50886 0.349967 7.39526C0.415148 7.28166 0.508941 7.18711 0.622013 7.12101L12.622 0.121014V0.120014ZM2.48801 7.77001L13 13.9L23.512 7.76901L13 1.63701L2.48801 7.76901V7.77001Z" />
</svg>
