<svg width="27" height="25" viewBox="0 0 27 25"  xmlns="http://www.w3.org/2000/svg">
<path fill-rule="evenodd" clip-rule="evenodd" d="M1.77399 9.80099C1.70768 9.80099 1.64409 9.82733 1.59721 9.87422C1.55033 9.9211 1.52399 9.98469 1.52399 10.051V15.051C1.52399 15.189 1.63599 15.301 1.77399 15.301H6.77399C6.84029 15.301 6.90388 15.2747 6.95076 15.2278C6.99765 15.1809 7.02399 15.1173 7.02399 15.051V10.051C7.02399 9.98469 6.99765 9.9211 6.95076 9.87422C6.90388 9.82733 6.84029 9.80099 6.77399 9.80099H1.77399V9.80099ZM0.0239868 10.051C0.0239868 9.08499 0.807987 8.30099 1.77399 8.30099H6.77399C7.74099 8.30099 8.52399 9.08499 8.52399 10.051V15.051C8.52399 15.5151 8.33961 15.9602 8.01142 16.2884C7.68323 16.6166 7.23812 16.801 6.77399 16.801H1.77399C1.30986 16.801 0.864739 16.6166 0.53655 16.2884C0.208361 15.9602 0.0239868 15.5151 0.0239868 15.051V10.051V10.051Z" />
<path fill-rule="evenodd" clip-rule="evenodd" d="M18.774 2.30099C18.7077 2.30099 18.6441 2.32733 18.5972 2.37422C18.5503 2.4211 18.524 2.48469 18.524 2.55099V8.55099C18.524 8.68899 18.636 8.80099 18.774 8.80099H24.774C24.8403 8.80099 24.9039 8.77466 24.9508 8.72777C24.9976 8.68089 25.024 8.6173 25.024 8.55099V2.55099C25.024 2.48469 24.9976 2.4211 24.9508 2.37422C24.9039 2.32733 24.8403 2.30099 24.774 2.30099H18.774ZM17.024 2.55099C17.024 1.58499 17.808 0.800995 18.774 0.800995H24.774C25.74 0.800995 26.524 1.58499 26.524 2.55099V8.55099C26.524 8.78081 26.4787 9.00837 26.3908 9.22069C26.3028 9.43301 26.1739 9.62593 26.0114 9.78843C25.8489 9.95093 25.656 10.0798 25.4437 10.1678C25.2314 10.2557 25.0038 10.301 24.774 10.301H18.774C18.3099 10.301 17.8647 10.1166 17.5366 9.78843C17.2084 9.46024 17.024 9.01512 17.024 8.55099V2.55099Z" />
<path fill-rule="evenodd" clip-rule="evenodd" d="M18.774 16.301C18.7077 16.301 18.6441 16.3273 18.5972 16.3742C18.5503 16.4211 18.524 16.4847 18.524 16.551V22.551C18.524 22.689 18.636 22.801 18.774 22.801H24.774C24.8403 22.801 24.9039 22.7747 24.9508 22.7278C24.9976 22.6809 25.024 22.6173 25.024 22.551V16.551C25.024 16.4847 24.9976 16.4211 24.9508 16.3742C24.9039 16.3273 24.8403 16.301 24.774 16.301H18.774ZM17.024 16.551C17.024 15.585 17.808 14.801 18.774 14.801H24.774C25.74 14.801 26.524 15.585 26.524 16.551V22.551C26.524 22.7808 26.4787 23.0084 26.3908 23.2207C26.3028 23.433 26.1739 23.6259 26.0114 23.7884C25.8489 23.9509 25.656 24.0798 25.4437 24.1678C25.2314 24.2557 25.0038 24.301 24.774 24.301H18.774C18.3099 24.301 17.8647 24.1166 17.5366 23.7884C17.2084 23.4602 17.024 23.0151 17.024 22.551V16.551Z" />
<path fill-rule="evenodd" clip-rule="evenodd" d="M7.02399 12.551C7.02399 12.3521 7.103 12.1613 7.24366 12.0207C7.38431 11.88 7.57507 11.801 7.77399 11.801H12.774C12.9729 11.801 13.1637 11.88 13.3043 12.0207C13.445 12.1613 13.524 12.3521 13.524 12.551C13.524 12.7499 13.445 12.9407 13.3043 13.0813C13.1637 13.222 12.9729 13.301 12.774 13.301H7.77399C7.57507 13.301 7.38431 13.222 7.24366 13.0813C7.103 12.9407 7.02399 12.7499 7.02399 12.551Z" />
<path fill-rule="evenodd" clip-rule="evenodd" d="M12.25 7C12.25 6.27065 12.5397 5.57118 13.0555 5.05546C13.5712 4.53973 14.2707 4.25 15 4.25H18V5.75H15C14.31 5.75 13.75 6.31 13.75 7V18C13.75 18.69 14.31 19.25 15 19.25H18V20.75H15C14.2707 20.75 13.5712 20.4603 13.0555 19.9445C12.5397 19.4288 12.25 18.7293 12.25 18V7Z" />
</svg>
