<svg width="18" height="16" viewBox="0 0 18 16"  xmlns="http://www.w3.org/2000/svg">
<path d="M5.663 15.313C12.453 15.313 16.169 9.685 16.169 4.806C16.169 4.648 16.165 4.486 16.159 4.328C16.8814 3.80548 17.5048 3.15836 18 2.417C17.327 2.716 16.612 2.912 15.88 2.997C16.6507 2.53495 17.2277 1.80908 17.504 0.953997C16.7792 1.38387 15.9866 1.68721 15.16 1.851C14.6029 1.2597 13.8667 0.868296 13.0649 0.737249C12.2632 0.606202 11.4406 0.742806 10.7242 1.12596C10.0079 1.50911 9.43765 2.11749 9.10161 2.8571C8.76556 3.59671 8.68241 4.42641 8.865 5.218C7.39717 5.14433 5.96121 4.763 4.65022 4.09872C3.33923 3.43444 2.18249 2.50205 1.255 1.362C0.783466 2.17474 0.639089 3.13653 0.851213 4.05189C1.06334 4.96726 1.61604 5.76751 2.397 6.29C1.81074 6.27155 1.23728 6.11388 0.724 5.83V5.875C0.723421 6.72797 1.01829 7.55482 1.55846 8.21496C2.09864 8.87509 2.85078 9.32776 3.687 9.496C3.14393 9.64486 2.57389 9.66676 2.021 9.56C2.257 10.2935 2.71609 10.935 3.33421 11.395C3.95233 11.855 4.69865 12.1106 5.469 12.126C4.70275 12.7279 3.82524 13.1728 2.88676 13.435C1.94829 13.6972 0.967293 13.7716 0 13.654C1.6897 14.7382 3.65536 15.3141 5.663 15.313V15.313Z" />
</svg>
