<svg width="27" height="26" viewBox="0 0 27 26"  xmlns="http://www.w3.org/2000/svg">
<path fill-rule="evenodd" clip-rule="evenodd" d="M13.342 7.75C12.2148 7.75 11.1338 8.19777 10.3368 8.9948C9.53976 9.79183 9.092 10.8728 9.092 12C9.092 13.1272 9.53976 14.2082 10.3368 15.0052C11.1338 15.8022 12.2148 16.25 13.342 16.25C14.4692 16.25 15.5502 15.8022 16.3472 15.0052C17.1442 14.2082 17.592 13.1272 17.592 12C17.592 10.8728 17.1442 9.79183 16.3472 8.9948C15.5502 8.19777 14.4692 7.75 13.342 7.75ZM7.592 12C7.592 11.2449 7.74072 10.4972 8.02969 9.79957C8.31865 9.10195 8.74219 8.46807 9.27613 7.93414C9.81007 7.4002 10.4439 6.97666 11.1416 6.68769C11.8392 6.39873 12.5869 6.25 13.342 6.25C14.0971 6.25 14.8448 6.39873 15.5424 6.68769C16.24 6.97666 16.8739 7.4002 17.4079 7.93414C17.9418 8.46807 18.3653 9.10195 18.6543 9.79957C18.9433 10.4972 19.092 11.2449 19.092 12C19.092 13.525 18.4862 14.9875 17.4079 16.0659C16.3295 17.1442 14.867 17.75 13.342 17.75C11.817 17.75 10.3545 17.1442 9.27613 16.0659C8.1978 14.9875 7.592 13.525 7.592 12V12Z" />
<path fill-rule="evenodd" clip-rule="evenodd" d="M13.342 17.75C11.8184 17.7498 10.3245 18.1716 9.02589 18.9685C7.72731 19.7655 6.67479 20.9065 5.985 22.265C5.89439 22.4415 5.73751 22.575 5.54873 22.6361C5.35994 22.6972 5.15463 22.681 4.97776 22.591C4.80089 22.5011 4.66688 22.3447 4.60508 22.1561C4.54327 21.9676 4.5587 21.7622 4.648 21.585C5.46314 19.9796 6.70686 18.6314 8.24133 17.6896C9.77579 16.7478 11.5411 16.2492 13.3415 16.2492C15.1419 16.2492 16.9072 16.7478 18.4417 17.6896C19.9761 18.6314 21.2199 19.9796 22.035 21.585C22.1243 21.7622 22.1397 21.9676 22.0779 22.1561C22.0161 22.3447 21.8821 22.5011 21.7052 22.591C21.5284 22.681 21.3231 22.6972 21.1343 22.6361C20.9455 22.575 20.7886 22.4415 20.698 22.265C20.0085 20.9063 18.9562 19.7652 17.6578 18.9681C16.3594 18.1709 14.8656 17.749 13.342 17.749V17.75Z" />
<path fill-rule="evenodd" clip-rule="evenodd" d="M18.592 4C18.592 3.80109 18.671 3.61032 18.8117 3.46967C18.9523 3.32902 19.1431 3.25 19.342 3.25H25.342C25.5409 3.25 25.7317 3.32902 25.8723 3.46967C26.013 3.61032 26.092 3.80109 26.092 4C26.092 4.19891 26.013 4.38968 25.8723 4.53033C25.7317 4.67098 25.5409 4.75 25.342 4.75H19.342C19.1431 4.75 18.9523 4.67098 18.8117 4.53033C18.671 4.38968 18.592 4.19891 18.592 4V4Z" />
<path fill-rule="evenodd" clip-rule="evenodd" d="M22.342 0.25C22.5409 0.25 22.7317 0.329018 22.8723 0.46967C23.013 0.610322 23.092 0.801088 23.092 1V7C23.092 7.19891 23.013 7.38968 22.8723 7.53033C22.7317 7.67098 22.5409 7.75 22.342 7.75C22.1431 7.75 21.9523 7.67098 21.8117 7.53033C21.671 7.38968 21.592 7.19891 21.592 7V1C21.592 0.801088 21.671 0.610322 21.8117 0.46967C21.9523 0.329018 22.1431 0.25 22.342 0.25V0.25Z" />
<path fill-rule="evenodd" clip-rule="evenodd" d="M13.34 0.25C14.5 0.5 14.39 1.75 13.343 1.75H13.342C11.117 1.75 8.94189 2.4098 7.09183 3.64597C5.24178 4.88213 3.79984 6.63914 2.94835 8.69481C2.09687 10.7505 1.87408 13.0125 2.30816 15.1948C2.74225 17.3771 3.81371 19.3816 5.38705 20.955C6.96039 22.5283 8.96495 23.5998 11.1472 24.0338C13.3295 24.4679 15.5915 24.2451 17.6472 23.3936C19.7029 22.5422 21.4599 21.1002 22.696 19.2502C23.9322 17.4001 24.592 15.225 24.592 13V12.998C24.5933 12.4065 24.5464 11.8159 24.452 11.232C24.4265 11.0386 24.4774 10.8429 24.5938 10.6865C24.7102 10.53 24.883 10.425 25.0755 10.3937C25.2681 10.3625 25.4652 10.4075 25.6251 10.5192C25.785 10.6309 25.8951 10.8005 25.932 10.992C26.3427 13.5671 25.9539 16.2062 24.8181 18.5535C23.6823 20.9008 21.8541 22.8433 19.58 24.1193C17.3058 25.3953 14.6952 25.9433 12.0999 25.6894C9.50466 25.4356 7.04965 24.3921 5.06588 22.6996C3.0821 21.0072 1.66496 18.7472 1.00553 16.2243C0.346101 13.7014 0.476088 11.037 1.37796 8.59028C2.27984 6.14358 3.91024 4.03223 6.04934 2.54091C8.18843 1.04959 10.7334 0.250023 13.341 0.25H13.34Z" />
</svg>
