<?xml version="1.0" encoding="iso-8859-1"?>
<!-- Generator: Adobe Illustrator 19.0.0, SVG Export Plug-In . SVG Version: 6.00 Build 0)  -->
<svg version="1.1" id="Layer_1" xmlns="http://www.w3.org/2000/svg" xmlns:xlink="http://www.w3.org/1999/xlink" x="0px" y="0px"
	 viewBox="0 0 512.075 512.075" style="enable-background:new 0 0 512.075 512.075;" xml:space="preserve">
<g transform="translate(0 -1)">
	<g>
		<g>
			<path d="M443.356,69.771c-8.331-8.331-21.839-8.331-30.17,0c-8.331,8.331-8.331,21.839,0,30.17
				c74.848,74.847,74.848,196.679,0,271.526c-8.331,8.331-8.331,21.839,0,30.17s21.839,8.331,30.17,0
				C534.866,310.127,534.866,161.281,443.356,69.771z"/>
			<path d="M383.014,130.108c-8.331-8.331-21.839-8.331-30.17,0s-8.331,21.839,0,30.17c41.653,41.653,41.653,109.191,0,150.843
				c-8.331,8.331-8.331,21.839,0,30.17c8.331,8.331,21.839,8.331,30.17,0C441.33,282.976,441.33,188.424,383.014,130.108z"/>
			<path d="M286.354,5.011l-143.77,102.693H21.421c-11.782,0-21.333,9.551-21.333,21.333v256c0,11.782,9.551,21.333,21.333,21.333
				h121.163l143.77,102.693c14.12,10.086,33.733-0.008,33.733-17.36V22.371C320.087,5.019,300.474-5.074,286.354,5.011z
				 M277.421,450.25l-106.667-76.19v-31.688c0-11.782-9.551-21.333-21.333-21.333c-11.782,0-21.333,9.551-21.333,21.333v21.333
				H42.754V150.371h85.333v21.333c0,11.782,9.551,21.333,21.333,21.333c11.782,0,21.333-9.551,21.333-21.333v-31.688l106.667-76.19
				V450.25z"/>
		</g>
	</g>
</g>
<g>
</g>
<g>
</g>
<g>
</g>
<g>
</g>
<g>
</g>
<g>
</g>
<g>
</g>
<g>
</g>
<g>
</g>
<g>
</g>
<g>
</g>
<g>
</g>
<g>
</g>
<g>
</g>
<g>
</g>
</svg>
