<svg width="18" height="14" viewBox="0 0 18 14"  xmlns="http://www.w3.org/2000/svg">
<path d="M17.82 3.4C17.82 3.4 17.645 2.159 17.104 1.614C16.418 0.896999 15.652 0.893999 15.3 0.850999C12.783 0.667999 9.004 0.667999 9.004 0.667999H8.996C8.996 0.667999 5.217 0.667999 2.7 0.850999C2.348 0.892999 1.582 0.896999 0.896 1.614C0.356 2.159 0.183 3.4 0.183 3.4C0.183 3.4 0 4.859 0 6.314V7.678C0 9.134 0.18 10.593 0.18 10.593C0.18 10.593 0.355 11.834 0.893 12.379C1.579 13.096 2.479 13.072 2.879 13.149C4.321 13.286 9 13.329 9 13.329C9 13.329 12.783 13.321 15.3 13.142C15.652 13.1 16.418 13.096 17.103 12.379C17.645 11.834 17.821 10.593 17.821 10.593C17.821 10.593 18 9.137 18 7.678V6.314C18 4.859 17.82 3.4 17.82 3.4ZM7.14 9.334V4.275L12.002 6.814L7.14 9.334V9.334Z" />
</svg>
